<?xml version="1.0" standalone="no"?>
<!DOCTYPE svg PUBLIC "-//W3C//DTD SVG 20010904//EN"
 "http://www.w3.org/TR/2001/REC-SVG-20010904/DTD/svg10.dtd">
<svg version="1.0" xmlns="http://www.w3.org/2000/svg"
 width="564.000000pt" height="1119.000000pt" viewBox="0 0 564.000000 1119.000000"
 preserveAspectRatio="xMidYMid meet">
<metadata>
Created by potrace 1.16, written by Peter Selinger 2001-2019
</metadata>
<g transform="translate(0.000000,1119.000000) scale(0.100000,-0.100000)"
fill="#000000" stroke="none">
<path d="M1780 10675 l-515 -515 515 -515 515 -515 510 0 510 0 515 515 515
515 -515 515 -515 515 -510 0 -510 0 -515 -515z m1260 376 l-235 -119 -230
115 c-126 64 -232 117 -234 119 -2 2 207 4 465 3 l469 0 -235 -118z m-752
-138 l-3 -238 -470 -237 c-259 -130 -474 -237 -479 -237 -5 -1 204 213 465
474 260 261 477 475 481 475 5 0 7 -107 6 -237z m174 90 c82 -81 148 -152 148
-158 0 -6 -70 -45 -155 -88 l-155 -77 0 235 c0 129 3 235 7 235 4 0 74 -66
155 -147z m848 -82 c0 -134 -3 -222 -9 -226 -6 -3 -78 29 -162 71 l-152 76
153 153 c85 85 157 152 161 149 4 -2 8 -103 9 -223z m125 126 c55 -56 267
-270 470 -475 l370 -374 -477 239 -478 238 0 237 c0 131 3 238 8 238 4 0 52
-46 107 -103z m-892 1 c100 -51 195 -100 211 -109 l29 -17 -73 -37 -73 -37
-146 146 c-80 80 -142 146 -138 146 5 0 90 -41 190 -92z m576 -54 l-146 -146
-71 36 c-40 20 -72 38 -72 41 0 6 411 214 425 214 5 1 -56 -65 -136 -145z
m-227 -123 l67 -37 -77 -77 -77 -77 -79 79 -79 79 69 36 c38 19 78 35 89 35
11 0 50 -17 87 -38z m-177 -121 l80 -80 -248 -248 -247 -247 0 245 0 245 163
82 c89 45 164 82 167 82 3 1 41 -35 85 -79z m426 -2 c86 -42 159 -83 162 -92
9 -22 8 -466 -1 -466 -4 0 -115 108 -247 240 l-240 240 80 80 c44 44 82 79 85
77 3 -1 75 -37 161 -79z m-851 -338 l0 -240 -487 1 -488 0 475 239 c261 131
481 239 488 239 9 1 12 -53 12 -239z m758 3 c127 -131 232 -239 232 -240 0 -2
-217 -3 -482 -3 l-483 0 240 240 c132 132 244 240 250 240 5 1 115 -106 243
-237z m760 1 c257 -130 469 -238 471 -240 2 -2 -212 -4 -477 -4 l-482 0 0 240
c0 156 4 240 10 240 6 0 221 -106 478 -236z m-1518 -504 c0 -186 -3 -240 -12
-239 -7 0 -227 108 -488 239 l-475 239 488 0 487 1 0 -240z m1000 237 c0 -1
-109 -111 -243 -245 l-242 -242 -245 245 -245 245 488 0 c268 0 487 -1 487 -3z
m989 -1 c-2 -2 -219 -112 -481 -245 l-478 -242 0 245 0 246 482 0 c265 0 479
-2 477 -4z m-1729 -257 l242 -241 -79 -80 -80 -80 -166 84 -167 83 0 237 c0
131 2 238 4 238 2 0 113 -109 246 -241z m758 4 l-3 -238 -164 -83 -164 -84
-81 81 -81 81 240 240 c132 132 243 240 248 240 4 0 6 -107 5 -237z m-1493
-11 l470 -237 3 -237 c1 -131 -1 -238 -5 -238 -5 0 -222 214 -483 475 -261
261 -470 475 -465 474 6 0 221 -107 480 -237z m2454 234 c-2 -3 -217 -218
-476 -479 l-473 -475 0 242 0 241 473 237 c447 225 486 244 476 234z m-1797
-562 l150 -76 -153 -154 c-85 -85 -157 -154 -161 -154 -5 0 -8 104 -8 230 0
156 3 230 11 230 5 0 78 -34 161 -76z m413 1 l74 -75 -69 -35 c-38 -19 -76
-35 -85 -35 -9 0 -48 16 -87 36 l-71 36 74 74 c40 41 77 74 81 74 4 0 42 -34
83 -75z m424 -22 c-1 -54 -4 -158 -8 -231 l-6 -132 -154 154 -154 154 149 76
c82 41 155 75 162 75 9 1 12 -24 11 -96z m-532 -137 c5 -5 -410 -216 -424
-216 -4 0 57 65 136 144 l144 144 69 -34 c39 -18 73 -35 75 -38z m278 -11 c33
-34 92 -94 130 -134 l70 -73 -212 106 c-117 58 -213 108 -213 111 0 3 30 20
68 39 76 39 66 42 157 -49z m110 -179 l110 -56 -470 1 -470 0 235 118 235 119
125 -63 c69 -35 175 -88 235 -119z"/>
<path d="M499 10172 c-52 -53 -135 -140 -184 -192 -50 -52 -141 -148 -203
-212 l-112 -118 0 -408 0 -408 119 -329 c100 -275 128 -341 169 -400 26 -38
93 -135 147 -215 55 -80 115 -168 135 -196 33 -47 142 -141 506 -439 l90 -74
213 -49 213 -50 151 -150 c84 -83 201 -197 260 -254 l108 -103 -41 -123 -42
-122 -41 32 c-23 18 -127 103 -233 188 l-191 156 -407 128 c-223 71 -409 126
-412 123 -5 -4 218 -664 234 -694 4 -6 122 -86 262 -178 l255 -166 75 5 c245
18 340 19 340 5 0 -8 11 -102 25 -210 21 -169 29 -206 58 -275 35 -80 35 -83
61 -410 15 -181 29 -355 33 -386 l6 -58 -889 0 -890 0 -63 -118 c-35 -64 -64
-122 -64 -127 0 -10 484 -854 1143 -1995 147 -254 447 -775 695 -1205 136
-236 332 -576 435 -755 103 -179 193 -335 199 -348 12 -22 15 -22 154 -20
l141 3 226 395 c125 217 503 879 842 1470 339 591 792 1383 1007 1759 216 376
391 691 389 700 -2 9 -30 67 -63 128 l-60 113 -882 0 c-486 0 -883 4 -883 8 0
4 13 178 30 385 l29 378 36 82 c32 73 39 105 61 287 14 113 28 207 30 209 2 3
95 -1 205 -8 l201 -12 258 168 259 168 35 100 c19 55 73 212 121 349 47 136
84 251 81 254 -3 2 -189 -53 -413 -124 l-408 -129 -215 -174 c-118 -96 -222
-180 -231 -188 -15 -13 -21 -3 -58 109 l-41 123 102 99 c57 55 173 169 259
254 l156 154 213 50 214 50 170 140 c94 77 221 182 282 232 82 68 124 110 161
166 55 81 186 272 264 385 40 59 68 124 169 404 l120 333 0 402 0 401 -147
156 c-82 85 -215 226 -298 313 -82 87 -151 153 -153 148 -2 -6 79 -208 179
-449 100 -241 182 -442 182 -448 0 -20 -274 -424 -291 -429 -9 -2 -59 -14
-109 -26 l-93 -22 -187 105 c-179 100 -577 275 -587 259 -2 -4 94 -101 214
-217 l219 -210 217 -324 218 -323 -49 -46 c-291 -271 -513 -496 -540 -549 -1
-2 -88 -33 -194 -69 l-194 -67 -196 -142 c-108 -78 -197 -138 -199 -134 -2 4
36 170 83 369 l85 362 0 201 0 201 -96 371 c-54 203 -101 374 -105 380 -12 12
-12 -23 7 -627 l15 -521 -135 -331 c-75 -182 -173 -421 -219 -531 l-82 -200
-355 0 -355 0 -215 515 -215 515 0 160 c0 167 11 610 22 873 3 86 2 152 -3
152 -5 0 -53 -170 -107 -378 l-97 -377 0 -203 0 -204 86 -365 c47 -200 84
-366 82 -368 -1 -1 -91 61 -199 139 l-195 142 -165 56 c-90 32 -176 60 -191
63 -19 5 -44 30 -78 74 -27 37 -160 173 -295 301 -148 142 -244 239 -240 247
2 8 98 152 211 321 l207 307 221 216 c122 119 219 219 216 222 -3 3 -25 -3
-50 -13 -25 -11 -116 -48 -203 -84 -86 -36 -238 -111 -337 -167 l-180 -101
-93 22 c-50 12 -100 24 -110 27 -10 2 -81 99 -158 214 l-139 209 186 450 c103
248 185 453 182 455 -2 2 -47 -39 -99 -93z m4840 -252 l261 -275 0 -375 0
-375 -206 495 c-317 764 -346 836 -330 820 8 -8 132 -139 275 -290z m-5045
-361 c-146 -354 -270 -648 -275 -654 -5 -5 -9 143 -9 359 l0 369 42 46 c23 25
117 125 208 221 92 96 195 205 230 243 35 37 65 66 67 64 2 -2 -117 -294 -263
-648z m196 -631 c0 -13 -227 -678 -234 -685 -1 -2 -6 155 -10 349 -3 194 -9
441 -12 548 l-6 195 131 -197 c72 -109 131 -203 131 -210z m4890 26 c-5 -203
-10 -447 -11 -543 0 -95 -4 -169 -8 -165 -5 5 -60 162 -123 349 l-115 340 130
197 c72 109 132 196 134 195 1 -2 -2 -169 -7 -373z m-5161 174 c1 -100 6 -340
11 -532 5 -193 7 -352 6 -354 -4 -3 -216 585 -216 600 0 6 41 111 91 232 95
228 98 236 103 236 2 0 4 -82 5 -182z m5291 -60 l92 -227 -107 -298 c-59 -164
-110 -300 -112 -303 -4 -4 5 468 12 630 2 52 4 174 5 270 0 95 4 170 8 165 5
-6 50 -112 102 -237z m-4245 -33 c-104 -101 -191 -183 -191 -182 -2 4 26 220
29 223 6 6 332 142 342 143 6 0 -75 -83 -180 -184z m3111 101 l142 -58 12 -98
c7 -54 10 -104 8 -110 -2 -6 -87 70 -188 169 -145 143 -177 179 -150 168 19
-7 99 -39 176 -71z m-3307 -188 l-12 -113 -167 -250 c-234 -349 -255 -379
-258 -363 -1 7 -11 110 -21 228 l-18 215 71 105 71 105 170 96 c94 53 172 95
173 93 2 -1 -2 -53 -9 -116z m3886 -178 l72 -105 -18 -205 c-10 -113 -18 -216
-19 -230 0 -21 -2 -22 -14 -10 -7 8 -102 148 -211 310 l-199 295 -12 95 c-23
168 -40 163 158 52 l171 -97 72 -105z m-2935 -261 c-7 -239 -15 -461 -18 -493
l-7 -59 -67 166 c-38 91 -68 172 -68 179 -1 20 163 648 167 644 2 -2 -1 -199
-7 -437z m1739 -204 c0 -11 -31 -94 -69 -185 -53 -128 -70 -159 -74 -140 -5
26 -27 810 -25 915 0 54 8 31 84 -255 46 -173 84 -324 84 -335z m-3141 593
c48 -11 89 -22 91 -24 4 -3 -68 -111 -277 -414 -140 -202 -160 -230 -148 -195
4 11 55 157 112 325 57 168 106 311 109 318 6 16 11 16 113 -10z m4506 -20
c32 -88 214 -628 211 -628 -5 0 -414 597 -420 612 -4 10 17 20 77 35 116 29
114 29 132 -19z m-4530 -428 c9 -102 18 -202 20 -222 l4 -38 -175 0 c-96 0
-173 4 -171 8 6 15 302 442 304 439 2 -1 10 -85 18 -187z m4606 -35 l151 -220
-172 -3 c-95 -1 -173 -1 -174 0 -2 2 6 98 16 213 10 116 18 216 19 224 0 19
-10 33 160 -214z m-3081 -799 c138 -336 249 -611 248 -613 -2 -1 -119 203
-260 455 l-257 457 0 164 c0 96 4 161 9 156 5 -6 122 -284 260 -619z m1651
462 l0 -163 -257 -457 c-141 -252 -258 -456 -260 -454 -3 3 491 1208 503 1227
3 5 7 9 10 9 2 0 4 -73 4 -162z m-3027 -126 c64 -119 180 -331 256 -469 77
-139 136 -253 133 -252 -4 0 -122 96 -262 212 l-255 213 -172 249 c-95 138
-172 253 -173 258 0 4 80 7 178 7 l177 -1 118 -217z m4607 213 c0 -2 -78 -118
-173 -257 l-173 -253 -255 -212 c-139 -116 -257 -212 -260 -212 -4 -1 58 117
137 262 79 144 195 355 256 469 l113 207 178 1 c97 0 177 -2 177 -5z m-4403
-306 c156 -149 191 -190 393 -454 130 -169 217 -291 209 -292 -8 -1 -95 17
-194 40 l-180 43 -51 89 c-28 50 -133 241 -234 425 -100 184 -194 355 -208
380 l-25 45 59 -56 c32 -31 136 -130 231 -220z m3809 -100 c-107 -195 -220
-401 -253 -459 l-58 -105 -188 -43 c-104 -24 -191 -42 -193 -39 -3 3 92 132
211 288 209 276 222 290 442 501 125 120 228 216 230 215 1 -2 -85 -163 -191
-358z m-2603 -414 c146 -258 264 -471 262 -473 -1 -2 -87 58 -191 133 l-189
137 -76 321 c-89 371 -92 388 -79 367 5 -8 128 -226 273 -485z m1515 150 c-92
-394 -58 -335 -292 -503 -192 -137 -184 -133 -155 -81 358 637 523 929 525
927 1 -2 -34 -156 -78 -343z m-2238 -3 l175 -59 413 -298 c226 -163 412 -300
412 -304 -1 -8 -300 -236 -310 -236 -5 0 -123 112 -264 249 -227 220 -273 271
-403 440 -81 105 -160 208 -176 229 -16 20 -27 37 -25 37 2 0 82 -26 178 -58z
m2908 16 c-19 -24 -98 -126 -175 -228 -125 -165 -169 -213 -402 -439 l-261
-253 -68 52 c-37 29 -106 82 -154 119 -48 36 -88 69 -88 73 0 3 120 93 268
199 147 106 331 240 410 297 143 104 143 104 315 162 95 32 176 59 181 59 4 1
-7 -18 -26 -41z m-3241 -766 l323 -187 155 -194 c86 -106 155 -195 153 -197
-2 -2 -195 98 -429 222 l-425 226 -56 159 c-30 87 -52 159 -49 159 3 0 151
-85 328 -188z m3702 24 l-54 -155 -424 -225 c-234 -124 -427 -223 -429 -221
-2 2 67 91 154 198 l157 195 221 128 c121 70 266 154 320 186 55 32 102 56
104 53 3 -2 -19 -74 -49 -159z m-3604 38 c182 -57 339 -108 350 -113 17 -7
420 -326 463 -366 11 -10 4 -42 -40 -179 -29 -91 -56 -166 -59 -166 -4 0 -104
120 -222 268 -119 147 -229 281 -244 298 -16 18 -150 102 -303 190 -151 86
-284 164 -295 172 l-20 14 20 -7 c11 -3 169 -53 350 -111z m3580 103 c-11 -8
-147 -87 -302 -177 l-283 -163 -237 -294 c-130 -161 -239 -293 -243 -293 -12
0 -113 331 -104 339 5 5 109 90 232 189 l222 181 173 54 c94 31 255 82 357
115 200 65 214 69 185 49z m-1631 -89 c-12 -20 -324 -397 -332 -401 -6 -4
-331 383 -340 405 -2 4 150 8 338 8 270 0 340 -3 334 -12z m-559 -160 c72 -88
149 -183 171 -212 l42 -51 -158 -214 c-155 -209 -159 -212 -173 -189 -83 131
-336 583 -330 589 19 18 308 239 313 238 3 0 64 -72 135 -161z m740 46 c83
-63 154 -119 158 -123 9 -9 -335 -607 -347 -604 -4 1 -76 96 -161 210 -134
179 -153 209 -142 224 28 40 332 408 337 408 3 1 73 -51 155 -115z m-2035
-330 c206 -109 385 -203 397 -209 13 -5 23 -14 23 -18 0 -5 -3 -6 -7 -4 -5 3
-163 31 -353 62 -190 32 -348 61 -352 64 -4 3 -32 77 -62 164 -43 122 -52 156
-38 149 9 -5 186 -99 392 -208z m3400 79 c-27 -76 -53 -149 -58 -163 -9 -24
-19 -27 -218 -59 -115 -19 -275 -46 -356 -61 -82 -14 -148 -24 -148 -21 1 4
816 439 827 441 1 0 -20 -62 -47 -137z m-2400 -187 c89 -153 164 -285 167
-292 4 -12 -39 -14 -261 -14 -146 0 -266 3 -266 6 0 8 181 567 187 577 3 5 6
7 8 5 2 -2 76 -128 165 -282z m1309 -13 c50 -154 91 -284 91 -287 0 -3 -119
-6 -265 -6 -146 0 -265 3 -265 8 0 4 43 82 96 172 53 91 128 220 166 288 39
68 74 120 78 115 4 -4 48 -135 99 -290z m-605 -117 l138 -186 -26 -342 c-15
-189 -31 -413 -37 -498 -5 -85 -12 -165 -15 -177 l-4 -23 -240 0 -240 0 -4 23
c-3 12 -21 246 -41 520 l-37 497 142 193 c79 105 150 202 159 214 l16 23 25
-30 c14 -16 88 -113 164 -214z m-1589 44 c193 -33 353 -60 357 -60 9 0 131
-150 126 -155 -5 -5 -277 -25 -344 -25 -49 0 -61 6 -270 141 -228 148 -244
159 -228 159 5 0 167 -27 359 -60z m3130 27 c-28 -19 -133 -87 -234 -152
l-183 -118 -190 11 c-105 6 -193 13 -195 16 -7 6 106 146 122 152 14 6 685
122 710 123 13 1 3 -10 -30 -32z m-2260 -509 c47 -139 126 -368 175 -508 l88
-255 -119 125 c-66 69 -193 203 -282 298 l-162 172 -26 205 c-14 113 -23 208
-20 210 2 3 62 5 131 5 l127 0 88 -252z m199 220 c7 -43 66 -864 66 -903 -1
-24 -329 900 -330 928 0 4 58 7 130 7 l129 0 5 -32z m936 28 c0 -2 -72 -213
-160 -469 -88 -257 -160 -471 -160 -476 0 -6 -3 -12 -8 -15 -5 -3 61 945 67
962 2 3 261 2 261 -2z m280 -33 c-1 -21 -11 -116 -23 -210 l-22 -173 -257
-272 c-141 -150 -267 -283 -281 -296 -20 -19 3 56 135 440 87 255 165 482 174
506 l16 42 129 0 129 0 0 -37z m-1411 -729 l271 -286 0 -226 c0 -141 -4 -222
-9 -217 -6 6 -57 71 -115 145 l-105 135 -125 285 c-163 371 -196 450 -191 450
2 0 125 -129 274 -286z m1322 244 c-10 -24 -82 -189 -160 -366 l-141 -324
-102 -131 c-55 -73 -107 -139 -114 -147 -12 -12 -14 21 -14 212 l0 227 271
285 c148 158 272 286 274 286 2 0 -4 -19 -14 -42z m-1422 -412 l121 -279 11
-561 c6 -309 9 -576 7 -595 -2 -20 -42 145 -102 425 l-99 458 -28 345 c-15
190 -31 380 -35 421 -3 41 -4 73 -1 70 3 -3 59 -131 126 -284z m1356 -141
c-37 -463 -21 -370 -180 -1085 l-54 -245 5 530 c2 292 7 562 10 600 5 61 20
104 126 348 67 152 122 276 124 275 1 -2 -13 -192 -31 -423z m-606 -92 c-61
-60 -115 -108 -119 -108 -4 0 -58 48 -120 108 l-113 107 232 0 231 0 -111
-107z m-158 -100 l25 -28 -113 -109 -113 -109 0 217 0 218 88 -80 c48 -44 99
-93 113 -109z m279 -29 l0 -215 -116 108 -115 108 112 108 c62 59 114 107 116
107 1 0 3 -97 3 -216z m241 -529 c-6 -317 -11 -600 -11 -630 l0 -54 -227 -201
c-124 -110 -227 -199 -228 -198 -2 2 10 73 25 158 16 85 69 385 119 665 50
281 94 521 99 535 9 26 224 311 230 305 2 -2 -1 -262 -7 -580z m-856 439 c59
-75 111 -148 115 -163 5 -14 43 -219 85 -456 42 -236 96 -537 119 -668 23
-131 39 -236 36 -235 -7 3 -326 287 -408 363 l-43 40 -9 530 c-11 601 -12 725
-6 725 3 0 53 -61 111 -136z m490 -29 l110 -104 -225 0 -225 0 109 104 c60 58
111 105 115 105 3 -1 56 -48 116 -105z m-830 -9 c5 -41 2 -69 -12 -113 l-20
-58 -927 -3 c-740 -2 -927 0 -924 10 2 7 27 59 57 116 l54 102 883 0 883 0 6
-54z m3175 44 c0 -5 -131 -238 -291 -517 -160 -279 -496 -866 -746 -1303 -251
-437 -551 -961 -668 -1165 -117 -203 -292 -509 -390 -680 -97 -171 -188 -330
-202 -353 l-25 -44 -64 112 -64 112 461 807 c1066 1862 1260 2201 1425 2488
96 167 174 307 174 313 0 6 -223 11 -662 12 l-663 3 -17 50 c-17 52 -22 114
-12 153 l6 22 869 0 c548 0 869 -4 869 -10z m83 -119 l58 -110 -114 -198
c-164 -285 -1463 -2552 -2020 -3526 -285 -498 -332 -575 -342 -560 -7 10 -185
317 -395 683 -498 865 -1305 2265 -1550 2690 -107 184 -238 412 -291 505 l-98
170 127 3 c94 2 128 -1 134 -10 34 -55 674 -1167 1113 -1933 142 -247 288
-502 325 -565 37 -63 163 -281 280 -485 117 -203 220 -381 230 -395 9 -14 43
-71 74 -127 31 -57 60 -103 64 -103 4 0 98 159 208 353 190 331 428 746 1377
2402 214 374 471 823 571 997 99 175 183 318 186 318 3 0 31 -49 63 -109z
m-3225 -111 c6 -30 50 -232 97 -448 47 -216 85 -396 85 -400 0 -4 -63 89 -140
206 l-140 213 0 141 c0 137 1 146 37 255 21 62 40 107 44 100 3 -6 11 -37 17
-67z m1453 -285 l-2 -160 -132 -201 c-73 -111 -133 -200 -135 -199 -3 3 183
869 195 910 5 14 17 -11 41 -85 34 -103 34 -108 33 -265z m-535 328 c-9 -44
-207 -1151 -218 -1223 -6 -36 -14 -68 -17 -72 -4 -4 -17 52 -30 125 -13 72
-65 369 -117 660 -52 290 -94 529 -94 532 0 3 108 5 241 5 l241 0 -6 -27z
m-994 -48 c3 -3 -3 -29 -13 -58 -10 -28 -18 -76 -19 -104 l0 -53 -720 0 c-396
0 -720 -2 -720 -4 0 -2 81 -145 181 -318 100 -172 268 -464 374 -648 106 -184
242 -420 302 -525 61 -104 264 -458 453 -785 188 -327 375 -651 415 -720 40
-69 134 -233 210 -365 76 -132 195 -339 265 -460 70 -121 132 -230 139 -242
l12 -23 -124 0 -124 0 -243 423 c-134 232 -503 872 -820 1422 -317 550 -638
1106 -712 1235 -74 129 -262 455 -417 723 -154 269 -281 493 -281 498 0 9
1832 13 1842 4z m2808 -3 c0 -4 -26 -52 -58 -107 l-58 -100 -572 -3 -572 -2 0
48 c0 27 -9 74 -19 105 -11 30 -17 58 -13 61 8 9 1292 7 1292 -2z m-2842 -320
c3 -92 1 -99 -140 -625 -131 -493 -142 -540 -147 -644 l-6 -112 -179 312 c-99
172 -287 499 -419 727 -132 228 -242 421 -244 428 -4 10 110 12 563 10 l569
-3 3 -93z m2709 85 c-3 -8 -166 -295 -363 -638 -197 -343 -383 -668 -413 -723
l-56 -99 -6 109 c-5 100 -17 154 -147 635 -139 514 -142 529 -142 628 l0 101
566 0 c468 0 565 -2 561 -13z m-2169 -870 c128 -115 232 -213 230 -218 -2 -5
-133 -133 -293 -285 -242 -232 -290 -274 -296 -258 -4 11 -17 105 -28 209 -11
105 -43 388 -70 630 -28 242 -53 467 -56 500 l-7 60 144 -215 143 -215 233
-208z m947 -42 c-86 -773 -82 -738 -99 -728 -12 7 -245 229 -508 483 l-77 75
235 209 236 208 141 214 c78 117 142 212 144 211 1 -2 -31 -304 -72 -672z
m-1462 490 c9 -82 44 -390 77 -684 33 -294 59 -535 57 -537 -1 -2 -97 82 -212
186 -170 153 -209 194 -207 212 1 13 59 235 127 493 69 259 125 477 125 485 0
8 3 10 8 5 5 -6 16 -77 25 -160z m1694 -343 c126 -471 132 -498 115 -514 -79
-77 -408 -366 -410 -360 -1 4 32 309 73 676 41 368 75 678 75 689 0 11 3 17 7
13 4 -4 67 -231 140 -504z m-531 -710 l212 -202 -125 -238 c-69 -130 -155
-293 -191 -362 l-66 -125 -102 615 c-56 338 -105 630 -108 649 -5 33 -3 32 82
-50 48 -46 182 -175 298 -287z m-500 -184 c-46 -282 -92 -561 -102 -620 -9
-60 -20 -108 -24 -108 -3 0 -68 118 -143 263 -75 144 -159 304 -186 355 l-50
92 292 280 c167 160 293 274 295 266 2 -8 -35 -245 -82 -528z m214 -141 l103
-629 -103 -436 c-57 -241 -106 -440 -109 -444 -3 -4 -53 193 -110 437 l-105
444 105 635 c57 349 107 632 110 628 3 -4 52 -290 109 -635z m-871 246 l136
-122 87 -373 c47 -205 86 -374 85 -374 -1 -1 -30 14 -63 34 l-61 37 -164 284
c-90 157 -199 346 -241 420 l-78 135 0 114 0 114 82 -73 c44 -41 142 -129 217
-196z m1578 -372 l-245 -426 -61 -37 c-33 -21 -61 -34 -61 -30 0 4 40 173 88
375 l87 368 215 194 215 193 3 -105 3 -106 -244 -426z m-1200 -211 c42 -80 93
-176 113 -215 33 -61 51 -124 135 -480 53 -225 98 -417 101 -425 21 -60 -39
59 -204 411 l-192 406 -80 342 c-44 188 -80 345 -80 349 0 7 43 -74 207 -388z
m892 40 l-81 -343 -196 -414 c-108 -227 -197 -412 -198 -410 -1 1 43 191 97
421 100 418 100 420 159 530 103 194 210 398 252 483 23 45 43 81 45 79 2 -1
-34 -157 -78 -346z m-963 -348 c12 -7 326 -663 320 -669 -3 -4 -416 711 -416
721 0 6 43 -17 96 -52z m1001 51 c-200 -351 -412 -720 -419 -728 -5 -5 22 55
60 135 38 80 111 234 162 343 93 196 94 197 144 227 55 32 59 34 53 23z"/>
<path d="M4540 2424 c-90 -76 -106 -244 -29 -308 40 -34 72 -34 87 -1 7 14 12
37 12 51 l0 26 76 -41 c72 -39 186 -120 200 -142 3 -6 1 -16 -5 -22 -31 -31 6
-86 49 -72 20 6 37 46 26 63 -3 5 19 30 48 55 101 87 138 218 80 287 -85 101
-206 69 -281 -73 l-17 -32 -17 73 c-12 52 -25 82 -45 104 -62 64 -131 76 -184
32z m135 -14 c40 -25 70 -86 86 -174 l11 -66 35 57 c63 105 97 128 177 120 42
-4 55 -10 79 -38 35 -42 33 -85 -8 -177 -26 -59 -82 -122 -107 -122 -6 0 -34
18 -62 39 -54 42 -247 151 -266 151 -6 0 -26 17 -45 37 -28 30 -33 33 -28 15
3 -13 1 -22 -6 -22 -6 0 -11 -4 -11 -10 0 -5 9 -10 20 -10 35 0 51 -51 26 -85
-12 -16 -18 -17 -38 -8 -34 15 -58 71 -58 132 0 138 100 220 195 161z"/>
<path d="M4650 1750 c-11 -11 -20 -30 -20 -42 0 -31 -36 -88 -55 -88 -27 0
-16 -16 19 -28 40 -15 96 -74 96 -101 0 -10 -7 -24 -15 -31 -13 -11 -25 -6
-71 24 -30 21 -61 35 -67 33 -7 -2 3 -13 22 -23 44 -25 91 -63 91 -75 0 -5
-13 -23 -29 -41 l-28 -32 -39 31 c-22 16 -50 36 -64 42 -24 12 -24 12 2 -11
15 -13 41 -33 58 -46 60 -46 28 -132 -38 -102 -14 6 -43 25 -64 41 -54 43 -47
21 13 -46 52 -56 52 -56 40 -95 -6 -22 -21 -46 -34 -55 -12 -8 -17 -15 -12
-15 45 1 81 92 56 139 -8 15 -6 17 18 13 22 -3 33 3 50 23 11 15 21 36 21 46
0 10 11 30 25 45 14 15 28 38 32 52 3 13 16 34 29 47 41 41 29 77 -41 125
l-45 31 20 26 c11 14 20 39 20 54 0 36 34 71 63 67 30 -4 67 -63 67 -108 0
-36 -17 -61 -50 -73 -10 -4 -7 -6 8 -6 15 -1 29 10 42 32 25 40 25 58 0 107
-31 61 -82 78 -120 40z"/>
<path d="M3814 1141 c4 -5 2 -56 -3 -113 -5 -56 -7 -105 -5 -107 2 -2 8 18 15
44 l12 47 23 -48 c24 -50 107 -164 177 -244 54 -61 87 -134 87 -193 l0 -47
-67 55 c-98 81 -177 117 -266 122 -61 3 -78 1 -111 -19 -54 -31 -83 -81 -69
-119 7 -18 7 -31 1 -37 -31 -31 29 -93 89 -91 28 1 28 1 -4 9 -42 10 -83 37
-83 55 0 22 16 26 46 10 35 -18 95 -20 112 -3 17 17 15 53 -4 69 -22 18 -85
16 -116 -5 -25 -16 -26 -16 -31 5 -8 28 4 50 45 84 30 25 37 27 112 23 101 -4
162 -31 266 -116 41 -34 78 -62 82 -62 16 0 28 66 18 99 -5 19 -8 37 -5 39 2
2 -1 9 -6 16 -5 6 -28 40 -50 76 -23 36 -63 88 -89 116 -89 95 -143 197 -157
301 -3 23 -10 43 -15 43 -5 0 -7 -4 -4 -9z"/>
<path d="M4280 1078 c0 -6 23 -35 50 -64 28 -29 50 -57 50 -63 0 -25 -24 -19
-68 18 -58 49 -80 52 -88 12 -4 -17 -12 -32 -20 -35 -8 -3 -14 -12 -14 -21 0
-8 -5 -15 -12 -15 -6 0 14 -27 45 -59 32 -33 57 -67 57 -75 0 -29 -54 -19
-104 19 -61 47 -59 25 4 -41 28 -29 50 -57 50 -63 0 -5 -19 -26 -42 -46 -27
-24 -34 -33 -18 -25 63 32 89 82 55 110 -8 7 -15 17 -15 23 0 7 4 7 12 -1 18
-18 42 -15 63 7 16 19 16 21 -3 48 -11 15 -34 41 -51 57 -31 30 -40 59 -21 71
6 4 24 -7 41 -24 39 -40 70 -61 87 -61 8 0 -9 18 -37 40 -53 42 -76 74 -66 90
11 18 31 11 61 -21 40 -43 62 -53 80 -38 18 15 18 53 -1 69 -22 18 -18 32 5
18 41 -26 81 33 43 63 -16 13 -17 12 -4 -3 7 -10 11 -25 7 -33 -9 -25 -52 -17
-100 20 -25 19 -46 30 -46 23z"/>
</g>
</svg>
